<?xml version="1.0" encoding="UTF-8" standalone="no"?>
<!-- Created with Inkscape (http://www.inkscape.org/) -->

<svg
   width="60.993mm"
   height="59.157661mm"
   viewBox="0 0 60.993 59.157661"
   version="1.1"
   id="svg1"
   xml:space="preserve"
   xmlns:inkscape="http://www.inkscape.org/namespaces/inkscape"
   xmlns:sodipodi="http://sodipodi.sourceforge.net/DTD/sodipodi-0.dtd"
   xmlns="http://www.w3.org/2000/svg"
   xmlns:svg="http://www.w3.org/2000/svg"><sodipodi:namedview
     id="namedview1"
     pagecolor="#ffffff"
     bordercolor="#000000"
     borderopacity="0.25"
     inkscape:showpageshadow="2"
     inkscape:pageopacity="0.0"
     inkscape:pagecheckerboard="0"
     inkscape:deskcolor="#d1d1d1"
     inkscape:document-units="mm"><inkscape:page
       x="4.4822163e-22"
       y="0"
       width="60.993"
       height="59.157661"
       id="page2"
       margin="0"
       bleed="0" /></sodipodi:namedview><defs
     id="defs1"><clipPath
       clipPathUnits="userSpaceOnUse"
       id="clipPath66"><path
         d="M 0,0 H 612 V 792 H 0 Z"
         id="path64" /></clipPath></defs><g
     inkscape:label="Layer 1"
     inkscape:groupmode="layer"
     id="layer1"
     transform="translate(-60.355475,-118.85241)"><g
       id="layer1-8"
       transform="translate(-10.845855,-8.5703091)"><g
         id="g62"
         clip-path="url(#clipPath66)"
         transform="matrix(3.2865495,0,0,-3.2865495,-1777.5199,239.16508)"><g
           id="g68"
           transform="translate(555.7697,24.4807)" /><g
           id="g72"
           transform="translate(580.8813,18.7189)"><path
             d="m 0,0 -2.418,2.029 c 0.843,1.334 1.333,2.914 1.333,4.609 0,4.773 -3.869,8.643 -8.642,8.643 -4.773,0 -8.643,-3.87 -8.643,-8.642 0,-4.773 3.87,-8.643 8.643,-8.643 1.852,0 3.566,0.584 4.973,1.575 l 2.579,-2.164 c 0,0 0.383,-0.321 0.705,0.062 l 1.532,1.826 c 0,0 0.322,0.383 -0.062,0.705 m -4.417,6.638 c 0,-2.933 -2.377,-5.31 -5.31,-5.31 -2.933,0 -5.311,2.377 -5.311,5.311 0,2.932 2.378,5.31 5.311,5.31 2.933,0 5.31,-2.378 5.31,-5.311"
             style="fill:#009c4d;fill-opacity:1;fill-rule:nonzero;stroke:none"
             id="path74" /></g><g
           id="g76"
           transform="translate(567.7498,25.3576)"><path
             d="M 0,0 C 0,1.88 1.524,3.404 3.404,3.404 5.284,3.404 6.808,1.88 6.808,0 6.808,-1.88 5.284,-3.405 3.404,-3.404 1.524,-3.404 0,-1.88 0,0"
             style="fill:#54565b;fill-opacity:1;fill-rule:nonzero;stroke:none"
             id="path78" /></g><g
           id="g80"
           transform="translate(579.4229,31.4499)" /></g></g></g></svg>
