<?xml version="1.0" encoding="UTF-8" standalone="no"?>
<!-- Created with Inkscape (http://www.inkscape.org/) -->

<svg
   width="337.76999"
   height="337.76999"
   viewBox="0 0 89.36831 89.368309"
   version="1.1"
   id="svg1"
   xml:space="preserve"
   xmlns="http://www.w3.org/2000/svg"
   xmlns:svg="http://www.w3.org/2000/svg"><defs
     id="defs1"><clipPath
       clipPathUnits="userSpaceOnUse"
       id="clipPath66"><path
         d="M 0,0 H 612 V 792 H 0 Z"
         id="path64" /></clipPath></defs><g
     id="layer1"
     transform="translate(-71.201332,-112.3174)"><g
       id="g62"
       clip-path="url(#clipPath66)"
       transform="matrix(3.2865495,0,0,-3.2865495,-1777.5199,239.16508)"><g
         id="g68"
         transform="translate(555.7697,24.4807)" /><g
         id="g72"
         transform="translate(580.8813,18.7189)"><path
           d="m 0,0 -2.418,2.029 c 0.843,1.334 1.333,2.914 1.333,4.609 0,4.773 -3.869,8.643 -8.642,8.643 -4.773,0 -8.643,-3.87 -8.643,-8.642 0,-4.773 3.87,-8.643 8.643,-8.643 1.852,0 3.566,0.584 4.973,1.575 l 2.579,-2.164 c 0,0 0.383,-0.321 0.705,0.062 l 1.532,1.826 c 0,0 0.322,0.383 -0.062,0.705 m -4.417,6.638 c 0,-2.933 -2.377,-5.31 -5.31,-5.31 -2.933,0 -5.311,2.377 -5.311,5.311 0,2.932 2.378,5.31 5.311,5.31 2.933,0 5.31,-2.378 5.31,-5.311"
           style="fill:#009c4d;fill-opacity:1;fill-rule:nonzero;stroke:none"
           id="path74" /></g><g
         id="g76"
         transform="translate(567.7498,25.3576)"><path
           d="M 0,0 C 0,1.88 1.524,3.404 3.404,3.404 5.284,3.404 6.808,1.88 6.808,0 6.808,-1.88 5.284,-3.405 3.404,-3.404 1.524,-3.404 0,-1.88 0,0"
           style="fill:#54565b;fill-opacity:1;fill-rule:nonzero;stroke:none"
           id="path78" /></g><g
         id="g80"
         transform="translate(579.4229,31.4499)" /></g><g
       id="g1"
       transform="matrix(0.24422298,-0.10178152,0.10178152,0.24422298,102.00113,138.74246)"><rect
         x="112"
         y="12"
         width="32"
         height="20"
         rx="5"
         fill="#1a1a1a"
         id="rect1"
         style="fill:#54565b;fill-opacity:1" /><rect
         x="100"
         y="32"
         width="56"
         height="116"
         rx="5"
         fill="#9e9e9e"
         id="rect2" /><path
         d="m 104,66 48,20"
         stroke="#ffffff"
         stroke-width="3"
         fill="none"
         stroke-linecap="round"
         id="path2" /><path
         d="m 104,102 48,20"
         stroke="#ffffff"
         stroke-width="3"
         fill="none"
         stroke-linecap="round"
         id="path3" /><path
         d="m 110,148 h 36 l -5,26 h -26 z"
         fill="#1a1a1a"
         id="path4"
         style="fill:#54565b;fill-opacity:1" /><path
         d="m 114,174 h 28 v 52 q 0,22 -14,22 -14,0 -14,-22 z"
         fill="#1a1a1a"
         id="path5"
         style="fill:#54565b;fill-opacity:1" /><ellipse
         cx="128"
         cy="222"
         rx="7"
         ry="12"
         fill="#ffffff"
         id="ellipse5" /></g></g></svg>
